{"title":"Mission Impossible Ghost Protocol 2011 FULL CAM READNFO XviD - N","uid":6895495,"size":4224662232,"categoryP":"video","categoryS":"movies","magnet":"?xt=urn:btih:451cddae375d598df897dec153a2d330a2b2ac6d&amp;dn=Mission+Impossible+Ghost+Protocol+2011+FULL+CAM+READNFO+XviD+-+N&amp;tr=udp%3A%2F%2Ftracker.openbittorrent.com%3A80&amp;tr=udp%3A%2F%2Fopen.demonii.com%3A1337&amp;tr=udp%3A%2F%2Ftracker.coppersurfer.tk%3A6969&amp;tr=udp%3A%2F%2Fexodus.desync.com%3A6969","seeders":1,"leechers":0,"uploader":"TvTeam","files":146,"time":1324185902,"description":". \n &lt;a href=&quot;\nhttp://www.torrenting.com&quot; rel=&quot;nofollow&quot; target=&quot;_NEW&quot;&gt;\nhttp://www.torrenting.com&lt;/a&gt;          :     Once &amp; For all ;)\n\n\n               www . Torrenting . Com \n\n(((((((((((((= Enjoy No RAR releases =))))))))))))))))))))\n\n\n...................................NFO:....................................\n\n.Mission Impossible Ghost Protocol 2011 FULL CAM READNFO XviD - NAM3LiSS\n\n\nVideo\nID                               : 0\nFormat                           : MPEG-4 Visual\nFormat profile                   : Advanced Simple@L5\nFormat settings, BVOP            : 2\nFormat settings, QPel            : No\nFormat settings, GMC             : No warppoints\nFormat settings, Matrix          : Default (H.263)\nMuxing mode                      : Packed bitstream\nCodec ID                         : XVID\nCodec ID/Hint                    : XviD\nDuration                         : 2h 6mn\nBit rate                         : 2 088 Kbps\nWidth                            : 720 pixels\nHeight                           : 320 pixels\nDisplay aspect ratio             : 2.25:1\nFrame rate                       : 25.000 fps\nColor space                      : YUV\nChroma subsampling               : 4:2:0\nBit depth                        : 8 bits\nScan type                        : Progressive\nCompression mode                 : Lossy\nBits/(Pixel*Frame)               : 0.363\nStream size                      : 1.84 GiB (94%)\nWriting library                  : XviD 64\n\nAudio\nID                               : 1\nFormat                           : MPEG Audio\nFormat version                   : Version 1\nFormat profile                   : Layer 3\nMode                             : Joint stereo\nMode extension                   : MS Stereo\nCodec ID                         : 55\nCodec ID/Hint                    : MP3\nDuration                         : 2h 6mn\nBit rate mode                    : Constant\nBit rate                         : 128 Kbps\nChannel(s)                       : 2 channels\nSampling rate                    : 44.1 KHz\nCompression mode                 : Lossy\nStream size                      : 115 MiB (6%)\nAlignment                        : Split accross interleaves\nInterleave, duration             : 40 ms (1.00 video frame)\n\nVIDEO: RUSSIAN / HINDI\nAUDIO: OWN\n\nREADNFO*\nRussian cam missing first 4 minutes, replaced with hindi cam\nblurred watermark on hindi cam\nFixed RGB and Sat. sharpened and resized\nsynced new cam audio, check sample\n\n\n[img]http://i.imgur.com/IUYmM.png[/img]\n[img]http://i.imgur.com/QHR5x.png[/img][img]http://i.imgur.com/jt9Fv.png[/img]\n[img]http://i.imgur.com/ztJUN.png[/img]","torrent":{"xt":"urn:btih:451cddae375d598df897dec153a2d330a2b2ac6d","amp;dn":"Mission+Impossible+Ghost+Protocol+2011+FULL+CAM+READNFO+XviD+-+N","amp;tr":["udp%3A%2F%2Ftracker.openbittorrent.com%3A80","udp%3A%2F%2Fopen.demonii.com%3A1337","udp%3A%2F%2Ftracker.coppersurfer.tk%3A6969","udp%3A%2F%2Fexodus.desync.com%3A6969"],"infoHash":"451cddae375d598df897dec153a2d330a2b2ac6d","infoHashBuffer":{"type":"Buffer","data":[69,28,221,174,55,93,89,141,248,151,222,193,83,162,211,48,162,178,172,109]},"announce":[],"urlList":[]}}